<?xml version="1.0" encoding="utf-8" ?>
<svg xmlns="http://www.w3.org/2000/svg" width="109.64353319562495" height="109.64353319562495" viewBox="0 0 115.625 115.625" class="looka-1j8o68f">
	<defs id="SvgjsDefs4229">
		<linearGradient id="SvgjsLinearGradient4236">
			<stop id="SvgjsStop4237" stop-color="#2d388a" offset="0"></stop>
			<stop id="SvgjsStop4238" stop-color="#00aeef" offset="1"></stop>
		</linearGradient>
	</defs>
	<g id="SvgjsG4230" featurekey="symbolContainer" transform="matrix(2.3125,0,0,2.3125,0,0)" fill="url(#SvgjsLinearGradient4236)">
		<circle cx="25" cy="25" r="25"></circle>
	</g>
	<g id="SvgjsG4231" featurekey="monogramFeature-0" transform="matrix(1.6847659131992994,0,0,1.6847659131992994,31.01085537045283,-6.2570739918199045)" fill="#ffffff">
		<path d="M-0.24 16.560000000000002 l0 0 c0.12 -0.06 30.78 -0.48 30.9 -0.36 c0.72 0.6 1.02 5.94 1.2 12.6 c-0.84 -0.42 -1.74 -0.84 -2.7 -1.2 c-2.22 -0.84 -4.86 -1.44 -7.8 -1.56 c-1.08 0 -2.04 0.72 -2.22 1.86 c0 0 -2.1 19.14 5.46 31.86 c-5.04 0.24 -12.06 0.3 -17.34 0.18 c-4.26 -13.08 3.54 -31.02 3.54 -31.08 c0.48 -1.02 0 -2.16 -1.02 -2.58 c-0.3 -0.18 -0.6 -0.24 -0.96 -0.24 c-2.76 0.12 -5.16 0.66 -7.32 1.38 c-0.78 0.24 -1.44 0.54 -2.1 0.9 c0.12 -6.66 0.36 -11.76 0.36 -11.76 z"></path>
	</g>
</svg>