<?xml version="1.0" encoding="utf-8" ?>
<svg width="409.0000122070312" height="158.07699441767699" viewBox="0 0 349.99999999999994 135.27370756698426" class="looka-1j8o68f"><defs id="SvgjsDefs6889"><linearGradient id="SvgjsLinearGradient6896"><stop id="SvgjsStop6897" stop-color="#2d388a" offset="0"></stop><stop id="SvgjsStop6898" stop-color="#00aeef" offset="1"></stop></linearGradient></defs><g id="SvgjsG6890" featurekey="symbolContainer" transform="matrix(1.46875,0,0,1.46875,138,0)" fill="url(#SvgjsLinearGradient6896)"><circle cx="25" cy="25" r="25"></circle></g><g id="SvgjsG6891" featurekey="monogramFeature-0" transform="matrix(1.0649384537753595,0,0,1.0649384537753595,157.63896043169365,-4.229162819520727)" fill="#ffffff"><path d="M-0.24 16.560000000000002 l0 0 c0.12 -0.06 30.78 -0.48 30.9 -0.36 c0.72 0.6 1.02 5.94 1.2 12.6 c-0.84 -0.42 -1.74 -0.84 -2.7 -1.2 c-2.22 -0.84 -4.86 -1.44 -7.8 -1.56 c-1.08 0 -2.04 0.72 -2.22 1.86 c0 0 -2.1 19.14 5.46 31.86 c-5.04 0.24 -12.06 0.3 -17.34 0.18 c-4.26 -13.08 3.54 -31.02 3.54 -31.08 c0.48 -1.02 0 -2.16 -1.02 -2.58 c-0.3 -0.18 -0.6 -0.24 -0.96 -0.24 c-2.76 0.12 -5.16 0.66 -7.32 1.38 c-0.78 0.24 -1.44 0.54 -2.1 0.9 c0.12 -6.66 0.36 -11.76 0.36 -11.76 z"></path></g><g id="SvgjsG6892" featurekey="nameFeature-0" transform="matrix(1.171665769180985,0,0,1.171665769180985,-1.8746645602570453,79.50241427223924)" fill="#127fc7"><path d="M21.4 12 l0 5.36 l-6.96 0 l0 22.64 l-5.84 0 l0 -22.64 l-7 0 l0 -5.36 l19.8 0 z M35.32 18.84 c4.72 0 10.88 3.56 10.88 10.84 s-6.16 10.72 -10.88 10.72 s-10.92 -3.44 -10.92 -10.72 s6.2 -10.84 10.92 -10.84 z M35.32 23.92 c-2.6 0 -5.36 1.96 -5.36 5.76 c0 3.68 2.76 5.64 5.36 5.64 c2.56 0 5.36 -1.96 5.36 -5.64 c0 -3.8 -2.8 -5.76 -5.36 -5.76 z M57.28 40.32 c-3.96 0 -7.88 -2.6 -7.88 -9.16 l0 -11.96 l5.72 0 l0 11.56 c0 3.4 1.32 4.56 3.52 4.56 c3.04 0 4.84 -2.88 5.28 -4.32 l0 -11.8 l5.72 0 l0 20.8 l-5.72 0 l0 -3.84 c-0.4 1.08 -2.64 4.16 -6.64 4.16 z M83.96 18.84 c3.8 0 7 1.64 8.96 5 l-4.4 2.04 c-1.12 -1.12 -2.2 -1.96 -4.48 -1.96 c-2.6 0 -5.36 1.96 -5.36 5.72 c0 3.72 2.76 5.64 5.36 5.64 c2.28 0 3.36 -0.8 4.48 -1.92 l4.44 2.04 c-2 3.36 -5.12 4.92 -9 4.92 c-4.64 0 -10.84 -3.36 -10.84 -10.68 c0 -7.24 6.2 -10.8 10.84 -10.8 z M108.6 18.88 c3.96 0 7.88 2.6 7.88 9.16 l0 11.96 l-5.72 0 l0 -11.56 c0 -3.4 -1.32 -4.56 -3.52 -4.56 c-3.04 0 -4.84 2.88 -5.28 4.32 l0 11.8 l-5.72 0 l0 -28.28 l5.72 0 l0 11.32 c0.4 -1.08 2.64 -4.16 6.64 -4.16 z M126.08 11.719999999999999 l0 28.28 l-5.72 0 l0 -28.28 l5.72 0 z M140.48 18.84 c4.72 0 11.24 3.56 10 12.76 l-15.12 0 c0.72 2.6 2.88 3.96 5.68 3.96 c2.6 0 3.6 -0.6 5.08 -1.4 l3.16 3.08 c-1.8 1.88 -4.36 3.16 -8.44 3.16 c-5.2 0 -11.28 -3.56 -11.28 -10.72 c0 -7.28 6.2 -10.84 10.92 -10.84 z M140.48 23.72 c-2.08 0 -4.28 1.28 -5.04 3.84 l10 0 c-0.64 -2.56 -2.92 -3.84 -4.96 -3.84 z M164.07999999999998 25.439999999999998 c-0.64 -1.48 -1.56 -2.04 -2.68 -2.04 c-1.04 0 -2 0.64 -2 1.56 c0 0.88 0.56 1.44 1.68 1.84 l2.52 0.92 c3.04 1.08 6 2.2 6 6.24 c0 4.16 -4.12 6.52 -8.32 6.52 c-3.8 0 -7.4 -2.24 -8.24 -5.88 l4.52 -1.4 c0.52 1.4 1.64 2.72 3.72 2.72 c1.48 0 2.6 -0.96 2.6 -2 c0 -0.68 -0.48 -1.28 -1.72 -1.76 l-2.4 -0.84 c-4.08 -1.48 -5.96 -3.6 -5.96 -6.44 c0 -3.76 3.48 -6.04 7.36 -6.04 c3.92 0 6.52 2.12 7.72 5.36 z M182.83999999999997 25.439999999999998 c-0.64 -1.48 -1.56 -2.04 -2.68 -2.04 c-1.04 0 -2 0.64 -2 1.56 c0 0.88 0.56 1.44 1.68 1.84 l2.52 0.92 c3.04 1.08 6 2.2 6 6.24 c0 4.16 -4.12 6.52 -8.32 6.52 c-3.8 0 -7.4 -2.24 -8.24 -5.88 l4.52 -1.4 c0.52 1.4 1.64 2.72 3.72 2.72 c1.48 0 2.6 -0.96 2.6 -2 c0 -0.68 -0.48 -1.28 -1.72 -1.76 l-2.4 -0.84 c-4.08 -1.48 -5.96 -3.6 -5.96 -6.44 c0 -3.76 3.48 -6.04 7.36 -6.04 c3.92 0 6.52 2.12 7.72 5.36 z M201.11999999999998 11.52 c4.92 0 8.04 3.08 9.52 5.8 l-4.32 2.56 c-1.52 -2.12 -3 -3.2 -5.2 -3.2 c-1.96 0 -3.4 1.16 -3.4 2.76 s0.92 2.44 3.12 3.24 l1.92 0.68 c6.2 2.2 8.64 4.96 8.64 8.8 c0 5.64 -5.36 8.44 -10.12 8.44 c-5.04 0 -8.96 -3 -10.32 -6.92 l4.48 -2.36 c1 2.04 2.68 4 5.84 4 c2.28 0 4.04 -1 4.04 -3.08 c0 -2 -1.2 -2.88 -4.24 -4.04 l-1.72 -0.6 c-4.12 -1.48 -7.44 -3.52 -7.44 -8.4 c0 -4.48 4.2 -7.68 9.2 -7.68 z M225.11999999999998 18.84 c4.72 0 11.24 3.56 10 12.76 l-15.12 0 c0.72 2.6 2.88 3.96 5.68 3.96 c2.6 0 3.6 -0.6 5.08 -1.4 l3.16 3.08 c-1.8 1.88 -4.36 3.16 -8.44 3.16 c-5.2 0 -11.28 -3.56 -11.28 -10.72 c0 -7.28 6.2 -10.84 10.92 -10.84 z M225.11999999999998 23.72 c-2.08 0 -4.28 1.28 -5.04 3.84 l10 0 c-0.64 -2.56 -2.92 -3.84 -4.96 -3.84 z M248.23999999999998 35.2 c1.08 0 1.88 -0.12 2.76 -0.44 l0 4.8 c-0.88 0.4 -2.24 0.68 -4.24 0.68 c-3.24 0 -5.96 -1.12 -5.96 -7 l0 -9.32 l-2.92 0 l0 -4.72 l2.92 0 l0 -4.88 l5.72 0 l0 4.88 l4.44 0 l0 4.72 l-4.44 0 l0 9.28 c0 0.96 0.28 2 1.72 2 z M262.03999999999996 40.32 c-3.96 0 -7.88 -2.6 -7.88 -9.16 l0 -11.96 l5.72 0 l0 11.56 c0 3.4 1.32 4.56 3.52 4.56 c3.04 0 4.84 -2.88 5.28 -4.32 l0 -11.8 l5.72 0 l0 20.8 l-5.72 0 l0 -3.84 c-0.4 1.08 -2.64 4.16 -6.64 4.16 z M290.03999999999996 18.84 c4.76 0 10.28 3.56 10.28 10.72 c0 7.4 -5.52 10.84 -10.28 10.84 c-3.6 0 -5.64 -2.12 -5.76 -2.96 l0 10.16 l-5.72 0 l0 -12.24 l0 -16.16 l5.72 0 l0 2.32 c0.12 -0.44 2.16 -2.68 5.76 -2.68 z M289.23999999999995 35.32 c2.88 0 5.52 -1.96 5.52 -5.76 c0 -3.68 -2.64 -5.64 -5.52 -5.64 c-2.8 0 -5.24 1.92 -5.24 5.64 c0 3.84 2.44 5.76 5.24 5.76 z"></path></g></svg>