<?xml version="1.0" encoding="utf-8" ?>
<svg xmlns="http://www.w3.org/2000/svg" width="48.44" height="48.44" viewBox="0 0 48.44 48.44" class="looka-1j8o68f">
	<defs id="SvgjsDefs1036">
		<linearGradient id="SvgjsLinearGradient1043">
			<stop id="SvgjsStop1044" stop-color="#2d388a" offset="0"></stop>
			<stop id="SvgjsStop1045" stop-color="#00aeef" offset="1"></stop>
		</linearGradient>
	</defs>
	<g id="SvgjsG1037" featurekey="symbolContainer" transform="matrix(0.96875,0,0,0.96875,0,0)" fill="url(#SvgjsLinearGradient1043)">
		<circle cx="25" cy="25" r="25"></circle>
	</g>
	<g id="SvgjsG1038" featurekey="symbolFeature-0" transform="matrix(0.3451906338379527,0,0,0.3451906338379527,6.470805386754048,6.461312756251315)" fill="#ffffff">
		<g xmlns="http://www.w3.org/2000/svg">
			<g>
				<g>
					<g>
						<path d="M85.26,95.55H56.19c-3.22,0-5.84-2.62-5.84-5.84V60.64c0-3.22,2.62-5.84,5.84-5.84h8.14L45.17,35.64v8.14      c0,3.22-2.62,5.84-5.84,5.84H10.27c-3.22,0-5.84-2.62-5.84-5.84V14.72c0-3.22,2.62-5.84,5.84-5.84h29.07      c3.22,0,5.84,2.62,5.84,5.84v11.27L65.04,6.16c0,0,0,0,0,0c2.27-2.27,5.97-2.27,8.25,0l20.57,20.53c1.1,1.1,1.71,2.57,1.71,4.13      c0,1.56-0.61,3.03-1.71,4.13L73.99,54.81h11.27c3.22,0,5.84,2.62,5.84,5.84v29.07C91.1,92.93,88.48,95.55,85.26,95.55z       M56.19,58.81c-1.01,0-1.84,0.82-1.84,1.84v29.07c0,1.01,0.82,1.84,1.84,1.84h29.07c1.01,0,1.84-0.82,1.84-1.84V60.64      c0-1.01-0.82-1.84-1.84-1.84H56.19z M67.87,8.99L47.3,29.52c-0.35,0.35-0.54,0.81-0.54,1.3c0,0.49,0.19,0.95,0.54,1.3      l20.57,20.57c0.69,0.69,1.9,0.69,2.6,0l20.57-20.57c0.35-0.35,0.54-0.81,0.54-1.3c0-0.49-0.19-0.95-0.54-1.3L70.46,8.99      C69.75,8.27,68.58,8.27,67.87,8.99L67.87,8.99z M10.27,12.88c-1.01,0-1.84,0.82-1.84,1.84v29.07c0,1.01,0.82,1.84,1.84,1.84      h29.07c1.01,0,1.84-0.82,1.84-1.84V14.72c0-1.01-0.82-1.84-1.84-1.84H10.27z M39.34,95.55H10.27c-3.22,0-5.84-2.62-5.84-5.84      V60.64c0-3.22,2.62-5.84,5.84-5.84h29.07c3.22,0,5.84,2.62,5.84,5.84v29.07C45.17,92.93,42.55,95.55,39.34,95.55z M10.27,58.81      c-1.01,0-1.84,0.82-1.84,1.84v29.07c0,1.01,0.82,1.84,1.84,1.84h29.07c1.01,0,1.84-0.82,1.84-1.84V60.64      c0-1.01-0.82-1.84-1.84-1.84H10.27z"></path>
					</g>
				</g>
			</g>
		</g>
	</g>
</svg>